<svg width="548" height="133" viewBox="0 0 548 133" fill="none" xmlns="http://www.w3.org/2000/svg">
<path fill-rule="evenodd" clip-rule="evenodd" d="M301.237 53.2982C304.794 53.2982 307.76 54.1633 310.132 55.8927C312.003 57.2296 313.385 59.0103 314.282 61.2329V53.9657H319.841V90.2838C319.841 95.6698 318.235 99.9197 315.023 103.033C311.811 106.145 307.414 107.702 301.83 107.702C297.334 107.702 293.578 106.64 290.564 104.515C287.599 102.44 285.796 99.6722 285.154 96.2135H290.786C291.33 98.1899 292.541 99.7465 294.418 100.883C296.345 102.069 298.939 102.662 302.2 102.662C306.054 102.662 308.97 101.599 310.946 99.4747C312.923 97.3993 313.912 94.3356 313.912 90.2838V84.2946C312.967 86.2755 311.535 87.9269 309.612 89.2463C307.092 90.9262 304.103 91.766 300.644 91.766C297.333 91.766 294.418 90.9755 291.898 89.3943C289.378 87.7638 287.427 85.5156 286.043 82.6499C284.659 79.784 283.967 76.4483 283.967 72.6435C283.967 68.7893 284.684 65.4045 286.117 62.4891C287.55 59.5738 289.551 57.3251 292.121 55.7439C294.739 54.1135 297.778 53.2983 301.237 53.2982ZM302.126 58.4124C298.371 58.4125 295.406 59.6724 293.232 62.1923C291.107 64.7124 290.045 68.1718 290.045 72.5695C290.045 76.8683 291.132 80.3025 293.306 82.8719C295.48 85.3919 298.42 86.6518 302.126 86.6518C305.832 86.6518 308.772 85.3672 310.946 82.7979C313.121 80.2284 314.208 76.7445 314.208 72.3467C314.208 68.0479 313.121 64.6629 310.946 62.1923C308.772 59.6725 305.832 58.4124 302.126 58.4124Z" fill="white"/>
<path d="M490.623 82.5108L501.92 53.9657H507.997L486.058 106.961H479.758L487.482 89.0042L471.901 53.9657H478.424L490.623 82.5108Z" fill="white"/>
<path fill-rule="evenodd" clip-rule="evenodd" d="M157.446 60.012C158.196 58.2574 159.405 56.8091 161.078 55.6699C163.45 54.0394 166.414 53.2242 169.972 53.2242C173.382 53.2242 176.322 54.0394 178.792 55.6699C181.312 57.2511 183.24 59.4998 184.574 62.4151C185.957 65.3304 186.649 68.7646 186.649 72.7175C186.649 76.7199 185.932 80.2039 184.499 83.1686C183.066 86.1332 181.065 88.4313 178.495 90.0618C175.926 91.6922 172.887 92.5075 169.379 92.5075C165.772 92.5075 162.832 91.667 160.559 89.987C158.995 88.805 157.883 87.3171 157.224 85.5235V91.766H146.328V38.4004H157.446V60.012ZM166.118 62.1184C163.549 62.1184 161.424 63.0572 159.744 64.9348C158.113 66.763 157.298 69.4067 157.298 72.8655C157.298 76.3244 158.113 78.9932 159.744 80.8709C161.424 82.6991 163.598 83.6134 166.266 83.6134C168.885 83.6134 171.01 82.6745 172.641 80.7969C174.271 78.9192 175.086 76.2504 175.086 72.7915C175.086 69.3327 174.247 66.6891 172.567 64.8608C170.936 63.0326 168.786 62.1184 166.118 62.1184Z" fill="white"/>
<path fill-rule="evenodd" clip-rule="evenodd" d="M249.878 60.012C250.628 58.2574 251.837 56.8091 253.51 55.6699C255.881 54.0394 258.846 53.2242 262.404 53.2242C265.813 53.2242 268.753 54.0394 271.224 55.6699C273.744 57.2511 275.672 59.4998 277.006 62.4151C278.389 65.3304 279.081 68.7646 279.081 72.7175C279.081 76.7199 278.364 80.2039 276.931 83.1686C275.498 86.1332 273.497 88.4313 270.927 90.0618C268.358 91.6922 265.319 92.5075 261.811 92.5075C258.204 92.5075 255.264 91.667 252.991 89.987C251.426 88.805 250.315 87.3171 249.656 85.5235V91.766H238.76V38.4004H249.878V60.012ZM258.55 62.1184C255.981 62.1184 253.855 63.0572 252.175 64.9348C250.545 66.763 249.73 69.4067 249.73 72.8655C249.73 76.3244 250.545 78.9932 252.175 80.8709C253.855 82.6991 256.03 83.6134 258.698 83.6134C261.317 83.6134 263.442 82.6745 265.072 80.7969C266.703 78.9192 267.518 76.2504 267.518 72.7915C267.518 69.3327 266.678 66.6891 264.998 64.8608C263.368 63.0326 261.218 62.1184 258.55 62.1184Z" fill="white"/>
<path fill-rule="evenodd" clip-rule="evenodd" d="M345.964 53.2242C350.658 53.2242 354.141 54.336 356.414 56.5594C358.687 58.783 359.824 62.1187 359.824 66.5658V84.7248C359.824 85.8118 359.898 86.9482 360.046 88.134C360.195 89.2705 360.393 90.4813 360.64 91.766H354.932C354.735 90.926 354.586 89.9625 354.487 88.8756C354.452 88.0907 354.429 87.1514 354.419 86.0575C353.541 87.8738 352.182 89.3326 350.337 90.4318C348.064 91.8153 345.272 92.5075 341.961 92.5075C338.058 92.5075 334.945 91.5687 332.622 89.6911C330.349 87.764 329.213 85.145 329.213 81.8344C329.213 78.5237 330.349 75.954 332.622 74.1257C334.895 72.2974 338.206 71.013 342.555 70.2718L354.043 68.3352V66.6398C354.043 63.7739 353.376 61.6735 352.042 60.3394C350.757 58.9559 348.656 58.2644 345.741 58.2644C342.876 58.2645 340.578 58.8576 338.849 60.0434C337.169 61.1799 336.229 62.8102 336.032 64.9348H330.325C330.572 61.2784 332.104 58.4127 334.92 56.3374C337.737 54.2621 341.418 53.2242 345.964 53.2242ZM343.444 74.8672C340.677 75.312 338.577 76.0533 337.144 77.091C335.711 78.1286 334.994 79.6353 334.994 81.6116C334.994 83.5387 335.636 84.9968 336.921 85.9851C338.255 86.9734 340.207 87.4673 342.777 87.4673C346.087 87.4673 348.78 86.7259 350.855 85.2436C352.98 83.7118 354.043 81.7351 354.043 79.3139V73.2073L343.444 74.8672Z" fill="white"/>
<path fill-rule="evenodd" clip-rule="evenodd" d="M422.505 53.2242C426.013 53.2242 429.052 53.9902 431.622 55.5219C434.24 57.0537 436.242 59.2033 437.625 61.9704C439.058 64.7374 439.774 67.9987 439.774 71.754C439.774 72.2481 439.75 72.7175 439.7 73.1622C439.7 73.6069 439.651 74.101 439.552 74.6445H410.058C410.353 78.2226 411.463 81.1626 413.388 83.4646C415.71 86.1328 418.799 87.4673 422.653 87.4673C425.074 87.4673 427.199 86.9487 429.027 85.9111C430.855 84.8241 432.19 83.2921 433.03 81.3157H438.663C437.427 84.7744 435.352 87.5164 432.436 89.5423C429.57 91.5187 426.211 92.5075 422.357 92.5075C418.75 92.5075 415.562 91.6671 412.795 89.987C410.028 88.2576 407.854 85.9106 406.273 82.9459C404.691 79.9811 403.901 76.5716 403.901 72.7175C403.901 68.8633 404.667 65.4784 406.199 62.5631C407.78 59.5984 409.979 57.3005 412.795 55.6699C415.612 54.0393 418.848 53.2242 422.505 53.2242ZM422.505 58.2644C418.749 58.2644 415.71 59.5735 413.388 62.1923C411.652 64.1546 410.58 66.6505 410.17 69.6791H433.857C433.519 66.449 432.552 63.8795 430.954 61.9704C428.978 59.4997 426.161 58.2644 422.505 58.2644Z" fill="white"/>
<path d="M217.329 53.2242C221.529 53.2242 224.741 54.4104 226.965 56.7822C229.188 59.1046 230.3 62.2422 230.3 66.1951V91.766H219.182V68.3448C219.182 66.2695 218.638 64.713 217.551 63.6754C216.514 62.6377 214.982 62.1184 212.956 62.1184C211.226 62.1184 209.67 62.5141 208.286 63.3046C206.952 64.0952 205.89 65.1824 205.099 66.5658C204.358 67.9493 203.988 69.5798 203.988 71.4572V91.766H192.87V53.9657H203.766V60.8678C204.944 58.782 206.501 57.0738 208.435 55.7439C210.856 54.0641 213.821 53.2242 217.329 53.2242Z" fill="white"/>
<path d="M377.183 91.766H371.253V38.4004H377.183V91.766Z" fill="white"/>
<path d="M394.989 91.766H389.059V38.4004H394.989V91.766Z" fill="white"/>
<path d="M466.268 53.2242C467.504 53.2242 468.344 53.3233 468.789 53.521V59.2279C468.542 59.1291 468.195 59.0799 467.751 59.0799C467.306 59.0305 466.763 59.0051 466.12 59.0051C462.365 59.0051 459.499 60.1421 457.522 62.4151C455.595 64.6387 454.632 67.8508 454.632 72.0508V91.766H448.702V53.9657H454.261V61.3093C455.194 58.9555 456.577 57.0999 458.412 55.7439C460.685 54.0639 463.304 53.2242 466.268 53.2242Z" fill="white"/>
<path d="M40 65.0001C40 32.9963 47.9964 25 80 25C112.004 25 120 32.9963 120 65.0001C120 97.0038 112.004 105 80 105C47.9964 105 40 97.0038 40 65.0001Z" fill="#E00B41"/>
<path fill-rule="evenodd" clip-rule="evenodd" d="M79.7146 49.5713C82.8149 49.5713 85.2446 49.5701 87.1383 49.7145C88.9644 49.8538 90.5192 50.1395 91.8223 50.8424L91.9476 50.912C93.3968 51.7343 94.1729 52.8976 94.5225 54.3729C94.7882 55.4944 94.8125 56.8474 94.8145 58.2987V71.609C94.8125 73.0603 94.7882 74.4133 94.5225 75.5347C94.1729 77.0101 93.3968 78.1733 91.9476 78.9957C90.6193 79.7493 89.0233 80.0494 87.1383 80.1932C85.2446 80.3376 82.8149 80.3364 79.7146 80.3364C76.6143 80.3364 74.1844 80.3376 72.2907 80.1932C70.4057 80.0494 68.81 79.7496 67.4816 78.996L67.4813 78.9957C66.0322 78.1734 65.2564 77.0101 64.9068 75.5347C64.6411 74.4133 64.6165 73.0603 64.6145 71.609V58.2987C64.6165 56.8474 64.6411 55.4944 64.9068 54.3729C65.2564 52.8975 66.0323 51.7343 67.4816 50.912C68.81 50.1584 70.4057 49.8583 72.2907 49.7145C74.1844 49.5701 76.6143 49.5713 79.7146 49.5713ZM79.7146 53.213C76.5553 53.213 74.29 53.2141 72.5676 53.3455C70.8367 53.4775 69.8948 53.7295 69.2785 54.0791C68.7833 54.3601 68.5868 54.6365 68.4503 55.2125C68.2678 55.9826 68.2563 57.0624 68.2563 58.9264V70.9813C68.2563 72.8452 68.2679 73.9248 68.4503 74.6948C68.5868 75.271 68.7832 75.5475 69.2785 75.8286L69.398 75.8929C70.0157 76.2092 70.9448 76.4384 72.5676 76.5622C74.29 76.6936 76.5553 76.6947 79.7146 76.6947C82.8739 76.6947 85.139 76.6936 86.8614 76.5622C88.5921 76.4302 89.534 76.1782 90.1505 75.8286C90.6457 75.5475 90.8424 75.2713 90.979 74.6951C91.1614 73.9251 91.173 72.8453 91.173 70.9813V58.9264C91.173 57.0624 91.1614 55.9826 90.979 55.2125C90.8424 54.6364 90.6457 54.3601 90.1505 54.0791C89.534 53.7294 88.5922 53.4775 86.8614 53.3455C85.139 53.2141 82.8739 53.213 79.7146 53.213Z" fill="white"/>
<path d="M51.4406 57.2216C51.5499 56.2221 52.4489 55.5001 53.4484 55.6092C55.0015 55.7788 56.3564 56.0971 57.5155 56.7775C58.9607 57.6257 59.7175 58.8148 60.058 60.3013C60.3189 61.4402 60.3434 62.8169 60.3454 64.308V65.5994C60.3434 67.0904 60.3189 68.4672 60.058 69.6061C59.7282 71.0461 59.0074 72.2065 57.6489 73.0489L57.5155 73.1296C56.3564 73.81 55.0015 74.1283 53.4484 74.2978C52.4488 74.407 51.5497 73.6851 51.4406 72.6855C51.3315 71.6859 52.0534 70.7872 53.053 70.678C54.3013 70.5417 55.0546 70.3232 55.5717 70.0453L55.6722 69.989C56.1577 69.7039 56.3661 69.4139 56.5084 68.793C56.6929 67.9873 56.7039 66.863 56.7039 64.9535C56.7039 63.044 56.6929 61.9198 56.5084 61.1141C56.3661 60.4933 56.1577 60.2031 55.6722 59.9181C55.1529 59.6133 54.3844 59.3748 53.053 59.2294C52.0534 59.1202 51.3315 58.2212 51.4406 57.2216Z" fill="white"/>
<path d="M105.983 55.6092C106.982 55.5002 107.881 56.2224 107.99 57.2219C108.099 58.2215 107.377 59.1202 106.378 59.2294C105.047 59.3747 104.278 59.6134 103.759 59.9181C103.273 60.2031 103.065 60.4932 102.922 61.1141C102.738 61.9198 102.727 63.044 102.727 64.9535C102.727 66.8631 102.738 67.9873 102.922 68.793C103.065 69.4138 103.273 69.7039 103.758 69.989C104.278 70.2938 105.046 70.5326 106.378 70.678C107.377 70.7871 108.099 71.6859 107.99 72.6855C107.881 73.6851 106.982 74.4069 105.983 74.2978C104.429 74.1283 103.075 73.8099 101.916 73.1296C100.471 72.2813 99.7133 71.0925 99.3728 69.6061C99.1119 68.4672 99.0875 67.0905 99.0854 65.5994V64.308C99.0875 62.8169 99.1119 61.4402 99.3728 60.3013C99.7133 58.8149 100.47 57.6261 101.915 56.7778L101.916 56.7775C103.075 56.0973 104.429 55.7788 105.983 55.6092Z" fill="white"/>
</svg>
