<svg width="548" height="133" viewBox="0 0 548 133" fill="none" xmlns="http://www.w3.org/2000/svg">
<path fill-rule="evenodd" clip-rule="evenodd" d="M308.237 54.2982C311.794 54.2982 314.76 55.1633 317.132 56.8927C319.003 58.2296 320.385 60.0103 321.282 62.2329V54.9657H326.841V91.2838C326.841 96.6698 325.235 100.92 322.023 104.033C318.811 107.145 314.414 108.702 308.83 108.702C304.334 108.702 300.578 107.64 297.564 105.515C294.599 103.44 292.796 100.672 292.154 97.2135H297.786C298.33 99.1899 299.541 100.746 301.418 101.883C303.345 103.069 305.939 103.662 309.2 103.662C313.054 103.662 315.97 102.599 317.946 100.475C319.923 98.3993 320.912 95.3356 320.912 91.2838V85.2946C319.967 87.2755 318.535 88.9269 316.612 90.2463C314.092 91.9262 311.103 92.766 307.644 92.766C304.333 92.766 301.418 91.9755 298.898 90.3943C296.378 88.7638 294.427 86.5156 293.043 83.6499C291.659 80.784 290.967 77.4483 290.967 73.6435C290.967 69.7893 291.684 66.4045 293.117 63.4891C294.55 60.5738 296.551 58.3251 299.121 56.7439C301.739 55.1135 304.778 54.2983 308.237 54.2982ZM309.126 59.4124C305.371 59.4125 302.406 60.6724 300.232 63.1923C298.107 65.7124 297.045 69.1718 297.045 73.5695C297.045 77.8683 298.132 81.3025 300.306 83.8719C302.48 86.3919 305.42 87.6518 309.126 87.6518C312.832 87.6518 315.772 86.3672 317.946 83.7979C320.121 81.2284 321.208 77.7445 321.208 73.3467C321.208 69.0479 320.121 65.6629 317.946 63.1923C315.772 60.6725 312.832 59.4124 309.126 59.4124Z" fill="white"/>
<path d="M497.623 83.5108L508.92 54.9657H514.997L493.058 107.961H486.758L494.482 90.0042L478.901 54.9657H485.424L497.623 83.5108Z" fill="white"/>
<path fill-rule="evenodd" clip-rule="evenodd" d="M164.446 61.012C165.196 59.2574 166.405 57.8091 168.078 56.6699C170.45 55.0394 173.414 54.2242 176.972 54.2242C180.382 54.2242 183.322 55.0394 185.792 56.6699C188.312 58.2511 190.24 60.4998 191.574 63.4151C192.957 66.3304 193.649 69.7646 193.649 73.7175C193.649 77.7199 192.932 81.2039 191.499 84.1686C190.066 87.1332 188.065 89.4313 185.495 91.0618C182.926 92.6922 179.887 93.5075 176.379 93.5075C172.772 93.5075 169.832 92.667 167.559 90.987C165.995 89.805 164.883 88.3171 164.224 86.5235V92.766H153.328V39.4004H164.446V61.012ZM173.118 63.1184C170.549 63.1184 168.424 64.0572 166.744 65.9348C165.113 67.763 164.298 70.4067 164.298 73.8655C164.298 77.3244 165.113 79.9932 166.744 81.8709C168.424 83.6991 170.598 84.6134 173.266 84.6134C175.885 84.6134 178.01 83.6745 179.641 81.7969C181.271 79.9192 182.086 77.2504 182.086 73.7915C182.086 70.3327 181.247 67.6891 179.567 65.8608C177.936 64.0326 175.786 63.1184 173.118 63.1184Z" fill="white"/>
<path fill-rule="evenodd" clip-rule="evenodd" d="M256.878 61.012C257.628 59.2574 258.837 57.8091 260.51 56.6699C262.881 55.0394 265.846 54.2242 269.404 54.2242C272.813 54.2242 275.753 55.0394 278.224 56.6699C280.744 58.2511 282.672 60.4998 284.006 63.4151C285.389 66.3304 286.081 69.7646 286.081 73.7175C286.081 77.7199 285.364 81.2039 283.931 84.1686C282.498 87.1332 280.497 89.4313 277.927 91.0618C275.358 92.6922 272.319 93.5075 268.811 93.5075C265.204 93.5075 262.264 92.667 259.991 90.987C258.426 89.805 257.315 88.3171 256.656 86.5235V92.766H245.76V39.4004H256.878V61.012ZM265.55 63.1184C262.981 63.1184 260.855 64.0572 259.175 65.9348C257.545 67.763 256.73 70.4067 256.73 73.8655C256.73 77.3244 257.545 79.9932 259.175 81.8709C260.855 83.6991 263.03 84.6134 265.698 84.6134C268.317 84.6134 270.442 83.6745 272.072 81.7969C273.703 79.9192 274.518 77.2504 274.518 73.7915C274.518 70.3327 273.678 67.6891 271.998 65.8608C270.368 64.0326 268.218 63.1184 265.55 63.1184Z" fill="white"/>
<path fill-rule="evenodd" clip-rule="evenodd" d="M352.964 54.2242C357.658 54.2242 361.141 55.336 363.414 57.5594C365.687 59.783 366.824 63.1187 366.824 67.5658V85.7248C366.824 86.8118 366.898 87.9482 367.046 89.134C367.195 90.2705 367.393 91.4813 367.64 92.766H361.932C361.735 91.926 361.586 90.9625 361.487 89.8756C361.452 89.0907 361.429 88.1514 361.419 87.0575C360.541 88.8738 359.182 90.3326 357.337 91.4318C355.064 92.8153 352.272 93.5075 348.961 93.5075C345.058 93.5075 341.945 92.5687 339.622 90.6911C337.349 88.764 336.213 86.145 336.213 82.8344C336.213 79.5237 337.349 76.954 339.622 75.1257C341.895 73.2974 345.206 72.013 349.555 71.2718L361.043 69.3352V67.6398C361.043 64.7739 360.376 62.6735 359.042 61.3394C357.757 59.9559 355.656 59.2644 352.741 59.2644C349.876 59.2645 347.578 59.8576 345.849 61.0434C344.169 62.1799 343.229 63.8102 343.032 65.9348H337.325C337.572 62.2784 339.104 59.4127 341.92 57.3374C344.737 55.2621 348.418 54.2242 352.964 54.2242ZM350.444 75.8672C347.677 76.312 345.577 77.0533 344.144 78.091C342.711 79.1286 341.994 80.6353 341.994 82.6116C341.994 84.5387 342.636 85.9968 343.921 86.9851C345.255 87.9734 347.207 88.4673 349.777 88.4673C353.087 88.4673 355.78 87.7259 357.855 86.2436C359.98 84.7118 361.043 82.7351 361.043 80.3139V74.2073L350.444 75.8672Z" fill="white"/>
<path fill-rule="evenodd" clip-rule="evenodd" d="M429.505 54.2242C433.013 54.2242 436.052 54.9902 438.622 56.5219C441.24 58.0537 443.242 60.2033 444.625 62.9704C446.058 65.7374 446.774 68.9987 446.774 72.754C446.774 73.2481 446.75 73.7175 446.7 74.1622C446.7 74.6069 446.651 75.101 446.552 75.6445H417.058C417.353 79.2226 418.463 82.1626 420.388 84.4646C422.71 87.1328 425.799 88.4673 429.653 88.4673C432.074 88.4673 434.199 87.9487 436.027 86.9111C437.855 85.8241 439.19 84.2921 440.03 82.3157H445.663C444.427 85.7744 442.352 88.5164 439.436 90.5423C436.57 92.5187 433.211 93.5075 429.357 93.5075C425.75 93.5075 422.562 92.6671 419.795 90.987C417.028 89.2576 414.854 86.9106 413.273 83.9459C411.691 80.9811 410.901 77.5716 410.901 73.7175C410.901 69.8633 411.667 66.4784 413.199 63.5631C414.78 60.5984 416.979 58.3005 419.795 56.6699C422.612 55.0393 425.848 54.2242 429.505 54.2242ZM429.505 59.2644C425.749 59.2644 422.71 60.5735 420.388 63.1923C418.652 65.1546 417.58 67.6505 417.17 70.6791H440.857C440.519 67.449 439.552 64.8795 437.954 62.9704C435.978 60.4997 433.161 59.2644 429.505 59.2644Z" fill="white"/>
<path d="M224.329 54.2242C228.529 54.2242 231.741 55.4104 233.965 57.7822C236.188 60.1046 237.3 63.2422 237.3 67.1951V92.766H226.182V69.3448C226.182 67.2695 225.638 65.713 224.551 64.6754C223.514 63.6377 221.982 63.1184 219.956 63.1184C218.226 63.1184 216.67 63.5141 215.286 64.3046C213.952 65.0952 212.89 66.1824 212.099 67.5658C211.358 68.9493 210.988 70.5798 210.988 72.4572V92.766H199.87V54.9657H210.766V61.8678C211.944 59.782 213.501 58.0738 215.435 56.7439C217.856 55.0641 220.821 54.2242 224.329 54.2242Z" fill="white"/>
<path d="M384.183 92.766H378.253V39.4004H384.183V92.766Z" fill="white"/>
<path d="M401.989 92.766H396.059V39.4004H401.989V92.766Z" fill="white"/>
<path d="M473.268 54.2242C474.504 54.2242 475.344 54.3233 475.789 54.521V60.2279C475.542 60.1291 475.195 60.0799 474.751 60.0799C474.306 60.0305 473.763 60.0051 473.12 60.0051C469.365 60.0051 466.499 61.1421 464.522 63.4151C462.595 65.6387 461.632 68.8508 461.632 73.0508V92.766H455.702V54.9657H461.261V62.3093C462.194 59.9555 463.577 58.0999 465.412 56.7439C467.685 55.0639 470.304 54.2242 473.268 54.2242Z" fill="white"/>
<path d="M27 66.4129C27 26.878 36.8781 17 76.4127 17C115.947 17 125.826 26.878 125.826 66.4129C125.826 105.948 115.947 115.826 76.4127 115.826C36.8781 115.826 27 105.948 27 66.4129Z" fill="#E00B41"/>
<path fill-rule="evenodd" clip-rule="evenodd" d="M76.0581 47.3535C79.8879 47.3535 82.8894 47.352 85.2287 47.5304C87.4845 47.7025 89.4052 48.0555 91.0149 48.9237L91.1698 49.0097C92.96 50.0256 93.9187 51.4625 94.3505 53.2851C94.6788 54.6704 94.7088 56.3419 94.7112 58.1346V74.5771C94.7088 76.3699 94.6788 78.0414 94.3505 79.4267C93.9186 81.2492 92.96 82.6861 91.1698 83.702C89.5288 84.633 87.5573 85.0037 85.2287 85.1813C82.8894 85.3597 79.8879 85.3582 76.0581 85.3582C72.2282 85.3582 69.2265 85.3597 66.8872 85.1813C64.5586 85.0037 62.5874 84.6333 60.9465 83.7024L60.9461 83.702C59.1559 82.6862 58.1976 81.2492 57.7657 79.4267C57.4375 78.0413 57.4071 76.3699 57.4047 74.5771V58.1346C57.4071 56.3418 57.4375 54.6704 57.7657 53.2851C58.1976 51.4625 59.1561 50.0255 60.9465 49.0097C62.5874 48.0788 64.5586 47.7081 66.8872 47.5304C69.2265 47.352 72.2282 47.3535 76.0581 47.3535ZM76.0581 51.8522C72.1554 51.8522 69.3569 51.8535 67.2292 52.0158C65.091 52.1789 63.9275 52.4902 63.1662 52.9221C62.5544 53.2693 62.3117 53.6106 62.1431 54.3223C61.9177 55.2735 61.9034 56.6074 61.9034 58.91V73.8017C61.9034 76.1043 61.9177 77.4379 62.1431 78.3891C62.3117 79.1009 62.5543 79.4424 63.1662 79.7896L63.3138 79.8692C64.0768 80.2598 65.2246 80.543 67.2292 80.6959C69.3569 80.8582 72.1554 80.8595 76.0581 80.8595C79.9608 80.8595 82.759 80.8582 84.8866 80.6959C87.0247 80.5328 88.1882 80.2216 88.9497 79.7896C89.5614 79.4425 89.8045 79.1012 89.9732 78.3895C90.1986 77.4383 90.2129 76.1043 90.2129 73.8017V58.91C90.2129 56.6074 90.1986 55.2735 89.9732 54.3223C89.8045 53.6106 89.5614 53.2692 88.9497 52.9221C88.1882 52.4902 87.0247 52.1789 84.8866 52.0158C82.759 51.8535 79.9608 51.8522 76.0581 51.8522Z" fill="white"/>
<path d="M41.1307 56.8041C41.2656 55.5694 42.3762 54.6775 43.611 54.8123C45.5296 55.0218 47.2032 55.415 48.6351 56.2555C50.4204 57.3033 51.3553 58.7723 51.7759 60.6084C52.0982 62.0154 52.1284 63.7161 52.1309 65.558V67.1534C52.1284 68.9952 52.0982 70.696 51.7759 72.1029C51.3685 73.8817 50.4781 75.3153 48.7999 76.3559L48.6351 76.4555C47.2032 77.296 45.5295 77.6892 43.611 77.8987C42.3761 78.0335 41.2655 77.1418 41.1307 75.9069C40.996 74.6721 41.8877 73.5619 43.1224 73.427C44.6645 73.2586 45.5952 72.9888 46.234 72.6455L46.358 72.5759C46.9578 72.2237 47.2153 71.8654 47.391 71.0985C47.6189 70.1032 47.6326 68.7143 47.6326 66.3555C47.6326 63.9967 47.619 62.6078 47.391 61.6125C47.2153 60.8456 46.9578 60.4872 46.358 60.1351C45.7165 59.7586 44.7672 59.464 43.1224 59.2844C41.8876 59.1495 40.9959 58.0389 41.1307 56.8041Z" fill="white"/>
<path d="M108.508 54.8123C109.742 54.6776 110.853 55.5697 110.987 56.8045C111.122 58.0392 110.23 59.1495 108.996 59.2844C107.351 59.4639 106.402 59.7587 105.761 60.1351C105.161 60.4872 104.903 60.8456 104.727 61.6125C104.499 62.6078 104.486 63.9967 104.486 66.3555C104.486 68.7144 104.499 70.1031 104.727 71.0985C104.903 71.8654 105.16 72.2238 105.76 72.5759C106.401 72.9524 107.351 73.2474 108.996 73.427C110.23 73.5619 111.122 74.6721 110.987 75.9069C110.853 77.1417 109.742 78.0334 108.508 77.8987C106.589 77.6892 104.915 77.2959 103.483 76.4555C101.698 75.4076 100.763 73.9391 100.342 72.1029C100.02 70.6959 99.9897 68.9953 99.9872 67.1534V65.558C99.9897 63.7161 100.02 62.0154 100.342 60.6084C100.763 58.7724 101.698 57.3037 103.483 56.2558L103.483 56.2555C104.915 55.4152 106.589 55.0218 108.508 54.8123Z" fill="white"/>
</svg>
