<svg width="759" height="133" viewBox="0 0 759 133" fill="none" xmlns="http://www.w3.org/2000/svg">
<path fill-rule="evenodd" clip-rule="evenodd" d="M441.45 37.6821C446.911 37.6821 451.462 39.01 455.103 41.6646C457.973 43.715 460.096 46.4442 461.474 49.8521V38.7065H470.006V94.4517C470.006 102.719 467.541 109.242 462.611 114.02C457.681 118.798 450.931 121.187 442.36 121.187C435.459 121.187 429.695 119.556 425.068 116.294C420.518 113.109 417.749 108.862 416.763 103.553H425.409C426.243 106.587 428.102 108.976 430.983 110.72C433.941 112.54 437.924 113.451 442.93 113.451C448.845 113.451 453.32 111.82 456.354 108.559C459.387 105.374 460.904 100.671 460.904 94.4517V85.2642C459.454 88.3028 457.255 90.8346 454.306 92.8589C450.438 95.4375 445.849 96.7271 440.54 96.7271C435.459 96.727 430.984 95.5133 427.116 93.0864C423.248 90.5836 420.252 87.1328 418.128 82.7339C416.004 78.335 414.942 73.2154 414.942 67.3755C414.942 61.4597 416.043 56.2643 418.242 51.7896C420.442 47.3148 423.513 43.864 427.457 41.437C431.477 38.9342 436.141 37.6821 441.45 37.6821ZM442.815 45.5327C437.051 45.5327 432.5 47.4664 429.163 51.3345C425.902 55.2024 424.272 60.5115 424.271 67.2612C424.271 73.8596 425.94 79.1308 429.277 83.0747C432.614 86.9427 437.127 88.8774 442.815 88.8774C448.504 88.8774 453.016 86.9052 456.354 82.9614C459.691 79.0176 461.359 73.6705 461.359 66.9204C461.359 60.322 459.691 55.1267 456.354 51.3345C453.016 47.4664 448.504 45.5327 442.815 45.5327Z" fill="#1B0408"/>
<path d="M732.14 82.5229L749.48 38.7065H758.81L725.135 120.049H715.465L727.32 92.4878L703.405 38.7065H713.417L732.14 82.5229Z" fill="#1B0408"/>
<path d="M382.958 103.553H374.995L403.777 11.4019H411.741L382.958 103.553Z" fill="#1B0408"/>
<path fill-rule="evenodd" clip-rule="evenodd" d="M179.147 48.4077C180.387 45.544 182.358 43.182 185.062 41.3228C188.779 38.8199 193.368 37.5688 198.829 37.5688C203.986 37.5689 208.461 38.82 212.253 41.3228C216.121 43.7497 219.117 47.2007 221.24 51.6753C223.364 56.15 224.426 61.4214 224.426 67.4888C224.426 73.632 223.326 78.9792 221.127 83.5298C218.927 88.0804 215.856 91.608 211.912 94.1108C207.968 96.6136 203.304 97.8647 197.919 97.8647C192.382 97.8647 187.831 96.5753 184.267 93.9966C181.762 92.0912 179.942 89.6777 178.806 86.7563V96.7271H164.812V14.8149H179.147V48.4077ZM194.164 49.2866C189.614 49.2867 185.935 50.9171 183.129 54.1782C180.323 57.3636 178.92 61.8765 178.92 67.7163C178.92 73.5562 180.323 78.069 183.129 81.2544C185.935 84.4399 189.652 86.0327 194.278 86.0327C198.905 86.0326 202.583 84.4398 205.313 81.2544C208.044 77.9931 209.409 73.4428 209.409 67.603C209.409 61.763 208.005 57.2504 205.199 54.0649C202.469 50.8795 198.791 49.2866 194.164 49.2866Z" fill="#1B0408"/>
<path fill-rule="evenodd" clip-rule="evenodd" d="M319.466 48.4097C320.705 45.545 322.677 43.1825 325.382 41.3228C329.098 38.8199 333.687 37.5689 339.147 37.5688C344.305 37.5688 348.78 38.8199 352.572 41.3228C356.44 43.7497 359.436 47.2006 361.56 51.6753C363.683 56.15 364.745 61.4214 364.745 67.4888C364.745 73.632 363.646 78.9792 361.446 83.5298C359.247 88.0804 356.174 91.608 352.23 94.1108C348.287 96.6135 343.622 97.8647 338.237 97.8647C332.701 97.8647 328.151 96.5752 324.586 93.9966C322.082 92.0912 320.262 89.6777 319.125 86.7563V96.7271H305.132V14.8149H319.466V48.4097ZM334.483 49.2866C329.933 49.2866 326.254 50.9171 323.448 54.1782C320.642 57.3636 319.238 61.8765 319.238 67.7163C319.238 73.5562 320.642 78.0689 323.448 81.2544C326.254 84.4397 329.97 86.0326 334.597 86.0327C339.223 86.0327 342.902 84.4399 345.633 81.2544C348.363 77.9932 349.728 73.4427 349.729 67.603C349.729 61.7631 348.325 57.2504 345.519 54.0649C342.788 50.8795 339.11 49.2866 334.483 49.2866Z" fill="#1B0408"/>
<path fill-rule="evenodd" clip-rule="evenodd" d="M510.102 37.5688C517.307 37.5688 522.655 39.275 526.144 42.688C529.632 46.101 531.376 51.2206 531.376 58.0464V85.9194C531.376 87.588 531.49 89.3326 531.718 91.1528C531.945 92.8972 532.249 94.7552 532.628 96.7271H523.868C523.565 95.4378 523.337 93.9589 523.186 92.2905C523.131 91.0874 523.095 89.6474 523.08 87.9712C521.732 90.7567 519.644 92.9932 516.814 94.6792C513.326 96.8028 509.04 97.8647 503.959 97.8647C497.967 97.8647 493.189 96.4236 489.624 93.5415C486.135 90.5836 484.391 86.5635 484.391 81.4819C484.391 76.4007 486.135 72.457 489.624 69.6509C493.113 66.8446 498.195 64.8725 504.869 63.7349L522.503 60.7622V58.1606C522.503 53.7617 521.478 50.5375 519.431 48.4897C517.459 46.3663 514.235 45.3052 509.761 45.3052C505.362 45.3052 501.835 46.2146 499.181 48.0347C496.602 49.779 495.161 52.2823 494.857 55.5435H486.098C486.477 49.9313 488.828 45.5326 493.15 42.3472C497.473 39.1618 503.124 37.5689 510.102 37.5688ZM506.234 70.7886C501.987 71.4712 498.763 72.6089 496.563 74.2017C494.364 75.7944 493.265 78.1075 493.265 81.1411C493.265 84.099 494.251 86.3362 496.223 87.853C498.27 89.3699 501.266 90.1284 505.21 90.1284C510.292 90.1284 514.425 88.9906 517.61 86.7153C520.872 84.3643 522.503 81.3309 522.503 77.6147V68.2397L506.234 70.7886Z" fill="#1B0408"/>
<path fill-rule="evenodd" clip-rule="evenodd" d="M627.585 37.5688C632.97 37.5688 637.634 38.7442 641.578 41.0952C645.598 43.4464 648.67 46.7455 650.794 50.9927C652.993 55.2399 654.093 60.2461 654.093 66.0103C654.093 66.7685 654.055 67.4889 653.979 68.1714C653.979 68.8539 653.904 69.6126 653.752 70.4468H608.481C608.933 75.9389 610.637 80.4516 613.592 83.9849C617.156 88.0804 621.897 90.1283 627.812 90.1284C631.529 90.1284 634.79 89.3324 637.597 87.7397C640.403 86.0712 642.451 83.7198 643.74 80.686H652.387C650.491 85.9951 647.305 90.2044 642.83 93.314C638.431 96.3477 633.273 97.8647 627.357 97.8647C621.821 97.8647 616.929 96.5752 612.682 93.9966C608.435 91.3421 605.098 87.7394 602.671 83.189C600.244 78.6383 599.03 73.4046 599.03 67.4888C599.03 61.5731 600.206 56.3776 602.557 51.9028C604.984 47.3523 608.359 43.8256 612.682 41.3228C617.005 38.8199 621.973 37.5689 627.585 37.5688ZM627.585 45.3052C621.821 45.3052 617.156 47.3148 613.592 51.3345C610.928 54.3462 609.282 58.1765 608.652 62.8247H645.01C644.491 57.8671 643.006 53.9229 640.555 50.9927C637.521 47.2006 633.197 45.3052 627.585 45.3052Z" fill="#1B0408"/>
<path d="M270.626 37.5688C276.921 37.5689 281.813 39.3509 285.302 42.9155C288.866 46.4802 290.648 51.2205 290.648 57.1362V96.7271H276.2V60.0942C276.2 56.5296 275.29 53.8373 273.47 52.0171C271.649 50.1968 268.995 49.2866 265.506 49.2866C262.472 49.2867 259.742 49.9694 257.315 51.3345C254.964 52.6997 253.105 54.5959 251.74 57.0229C250.451 59.4498 249.807 62.2558 249.807 65.4409V96.7271H235.472V38.7065H249.465V49.3853C251.353 46.146 253.854 43.4959 256.974 41.437C260.766 38.8583 265.317 37.5688 270.626 37.5688Z" fill="#1B0408"/>
<path d="M558.021 96.7271H548.92V14.8149H558.021V96.7271Z" fill="#1B0408"/>
<path d="M585.352 96.7271H576.25V14.8149H585.352V96.7271Z" fill="#1B0408"/>
<path d="M694.759 37.5688C696.655 37.5688 697.944 37.7205 698.627 38.0239V46.7837C698.248 46.632 697.717 46.5562 697.034 46.5562C696.352 46.4803 695.517 46.4419 694.531 46.4419C688.767 46.4419 684.369 48.1868 681.335 51.6753C678.377 55.0883 676.897 60.0186 676.897 66.4653V96.7271H667.796V38.7065H676.329V49.9741C677.762 46.3631 679.885 43.5175 682.7 41.437C686.189 38.8584 690.208 37.5689 694.759 37.5688Z" fill="#1B0408"/>
<path fill-rule="evenodd" clip-rule="evenodd" d="M65.978 1.93211C68.5071 0.242442 71.149 -0.301232 73.9585 0.153785C76.1928 0.515678 78.5105 1.54533 80.396 2.35007C93.3043 7.86003 102.343 20.7369 102.343 35.7231L102.342 35.9575C102.282 45.5698 98.498 54.3101 92.3608 60.771H115.388C118.138 60.771 121.023 60.7455 123.406 61.2173C126.19 61.7685 128.801 63.0749 130.705 65.8432L130.794 65.9761C132.484 68.5051 133.029 71.1471 132.574 73.9565C132.212 76.1909 131.181 78.5085 130.376 80.394C124.91 93.2019 112.191 102.2 97.3549 102.34L97.0043 102.342C87.3015 102.342 78.474 98.548 71.9614 92.3628V115.388C71.9614 118.138 71.9859 121.023 71.5141 123.406C70.9541 126.234 69.6148 128.884 66.7553 130.794C64.2264 132.484 61.5851 133.029 58.7758 132.574C56.5415 132.212 54.2238 131.181 52.3383 130.376C39.4301 124.867 30.3912 111.99 30.3911 97.0044C30.3911 87.2999 34.1857 78.4698 40.3725 71.9565H17.3383C14.5889 71.9565 11.7032 71.982 9.32076 71.5102C6.4928 70.9502 3.84284 69.61 1.93209 66.7505C0.2426 64.2214 -0.301255 61.5794 0.153766 58.77C0.515668 56.5359 1.5454 54.2188 2.35006 52.3335C7.85979 39.4249 20.7362 30.3854 35.7221 30.3852C45.4279 30.3852 54.2594 34.1816 60.7729 40.3706V17.3393C60.7729 14.5898 60.7474 11.7034 61.2192 9.32078C61.7793 6.49287 63.1186 3.84284 65.978 1.93211ZM60.7758 72.5971C49.8024 75.1557 41.5756 85.0808 41.5756 97.0044C41.5758 107.395 47.8344 116.293 56.729 120.089C57.8302 120.559 58.6296 120.9 59.3208 121.157C59.9125 121.377 60.2668 121.474 60.4751 121.516C60.4942 121.45 60.5179 121.357 60.5424 121.233C60.6291 120.795 60.6998 120.143 60.7378 119.12C60.7756 118.099 60.7758 116.908 60.7758 115.388V72.5971ZM72.5981 71.9565C75.1563 82.9292 85.0815 91.1566 97.0043 91.1567L97.2475 91.1557C107.534 91.0589 116.322 84.8288 120.089 76.0034C120.559 74.9023 120.9 74.1027 121.157 73.4116C121.377 72.8195 121.474 72.4645 121.516 72.2563C121.45 72.2372 121.357 72.2145 121.233 72.1899C120.795 72.1032 120.143 72.0326 119.12 71.9946C118.099 71.9568 116.908 71.9565 115.388 71.9565H72.5981ZM35.479 41.5718C25.1929 41.6687 16.4041 47.8987 12.6372 56.7241C12.1672 57.8253 11.8276 58.6257 11.5708 59.3169C11.351 59.9084 11.2528 60.262 11.2104 60.4702C11.2768 60.4893 11.3697 60.513 11.4936 60.5376C11.9314 60.6243 12.5837 60.6949 13.6069 60.7329C14.6276 60.7708 15.8182 60.771 17.3383 60.771H60.1284C57.5698 49.7971 47.6452 41.5698 35.7221 41.5698L35.479 41.5718ZM72.1909 11.4936C72.1042 11.9314 72.0345 12.5838 71.9965 13.6069C71.9587 14.6277 71.9575 15.819 71.9575 17.3393V60.1303C82.931 57.5718 91.1576 47.6466 91.1577 35.7231C91.1576 25.3322 84.899 16.4348 76.0043 12.6382C74.9032 12.1682 74.1037 11.8276 73.4126 11.5708C72.8205 11.3508 72.4665 11.2537 72.2583 11.2114C72.2392 11.2778 72.2154 11.37 72.1909 11.4936Z" fill="#FF385C"/>
</svg>
