<svg width="745" height="98" viewBox="0 0 745 98" fill="none" xmlns="http://www.w3.org/2000/svg">
<path fill-rule="evenodd" clip-rule="evenodd" d="M89.683 1.08527e-06C99.513 8.92009e-07 107.217 -0.00387746 113.221 0.454103C119.011 0.895806 123.941 1.80169 128.073 4.03027L128.47 4.25098C133.065 6.85834 135.526 10.5467 136.634 15.2246C137.477 18.7803 137.554 23.0704 137.56 27.6719V69.875C137.554 74.4764 137.477 78.7666 136.634 82.3223C135.526 87.0002 133.065 90.6884 128.47 93.2959C124.258 95.6853 119.198 96.6368 113.221 97.0928C107.217 97.5507 99.513 97.5469 89.683 97.5469C79.8528 97.5469 72.1483 97.5507 66.144 97.0928C60.1672 96.6369 55.1076 95.6861 50.8959 93.2969L50.8949 93.2959C46.3001 90.6885 43.8404 87.0001 42.7319 82.3223C41.8893 78.7666 41.8113 74.4765 41.8051 69.875V27.6719C41.8113 23.0703 41.8893 18.7803 42.7319 15.2246C43.8405 10.5465 46.3006 6.85827 50.8959 4.25098C55.1077 1.86148 60.1671 0.910027 66.144 0.454103C72.1483 -0.00387418 79.8528 1.08527e-06 89.683 1.08527e-06ZM89.683 11.5469C79.6658 11.5469 72.483 11.5502 67.0219 11.9668C61.5337 12.3854 58.5474 13.1843 56.5932 14.293C55.0229 15.1839 54.4001 16.0602 53.9672 17.8867C53.3887 20.3282 53.352 23.7519 53.352 29.6621V67.8848C53.352 73.7946 53.3888 77.2177 53.9672 79.6592C54.4001 81.486 55.0228 82.3627 56.5932 83.2539L56.9721 83.458C58.9305 84.4608 61.8766 85.1876 67.0219 85.5801C72.483 85.9966 79.6658 86 89.683 86C99.6999 86 106.882 85.9966 112.343 85.5801C117.831 85.1615 120.817 84.3626 122.772 83.2539C124.342 82.3628 124.966 81.4869 125.399 79.6602C125.977 77.2187 126.014 73.7948 126.014 67.8848V29.6621C126.014 23.752 125.977 20.3282 125.399 17.8867C124.966 16.06 124.342 15.1839 122.772 14.293C120.817 13.1843 117.831 12.3854 112.343 11.9668C106.882 11.5502 99.7 11.5469 89.683 11.5469Z" fill="#E00B41"/>
<path d="M0.0345865 24.2568C0.381008 21.0877 3.23149 18.7986 6.4008 19.1445C11.3253 19.6821 15.621 20.6914 19.2963 22.8486C23.8785 25.5382 26.2782 29.3085 27.3578 34.0215C28.185 37.6328 28.2626 41.9979 28.269 46.7256V50.8203C28.2626 55.5479 28.1849 59.9131 27.3578 63.5244C26.312 68.09 24.0266 71.7695 19.7192 74.4404L19.2963 74.6963C15.621 76.8536 11.3252 77.8627 6.4008 78.4004C3.23121 78.7464 0.38062 76.4577 0.0345865 73.2881C-0.311173 70.1188 1.97767 67.2691 5.14689 66.9229C9.10494 66.4907 11.4936 65.7981 13.1332 64.917L13.4516 64.7383C14.9911 63.8344 15.652 62.9148 16.1029 60.9463C16.688 58.3916 16.7231 54.8269 16.7231 48.7725C16.7231 42.718 16.6881 39.1533 16.1029 36.5986C15.6519 34.6302 14.9912 33.7104 13.4516 32.8066C11.8052 31.8403 9.36854 31.0839 5.14689 30.623C1.97752 30.2768 -0.311398 27.4263 0.0345865 24.2568Z" fill="#E00B41"/>
<path d="M172.971 19.1445C176.14 18.7988 178.99 21.0886 179.336 24.2578C179.682 27.4271 177.393 30.2769 174.224 30.623C170.003 31.0838 167.567 31.8404 165.92 32.8066C164.381 33.7104 163.719 34.6301 163.268 36.5986C162.683 39.1533 162.649 42.718 162.649 48.7725C162.649 54.827 162.683 58.3915 163.268 60.9463C163.719 62.9147 164.38 63.8346 165.918 64.7383C167.565 65.7048 170.002 66.462 174.224 66.9229C177.393 67.269 179.682 70.1188 179.336 73.2881C178.99 76.4575 176.141 78.7462 172.971 78.4004C168.046 77.8627 163.751 76.8533 160.076 74.6963C155.494 72.0065 153.093 68.2373 152.013 63.5244C151.186 59.9131 151.108 55.5481 151.102 50.8203V46.7256C151.108 41.9979 151.186 37.6328 152.013 34.0215C153.093 29.3088 155.493 25.5392 160.075 22.8496L160.076 22.8486C163.751 20.6919 168.046 19.6821 172.971 19.1445Z" fill="#E00B41"/>
<path fill-rule="evenodd" clip-rule="evenodd" d="M470.02 23.7998C474.086 23.7998 477.619 24.8338 480.619 26.9004C483.686 28.9004 485.852 31.5671 487.119 34.9004V25H493.42V73.7998C493.42 77.9998 492.52 81.6335 490.72 84.7002C488.92 87.7668 486.32 90.1002 482.92 91.7002C479.587 93.3669 475.553 94.2002 470.819 94.2002C467.086 94.2002 463.686 93.5335 460.619 92.2002C457.619 90.9335 455.153 89.1331 453.22 86.7998C451.286 84.4665 450.053 81.7668 449.52 78.7002L456.42 78.2998C457.02 81.1665 458.486 83.4669 460.819 85.2002C463.153 87.0002 466.486 87.9004 470.819 87.9004C475.953 87.9004 479.886 86.6997 482.619 84.2998C485.419 81.8998 486.819 78.3998 486.819 73.7998V64.7002C485.486 67.9001 483.353 70.4671 480.42 72.4004C477.487 74.3337 474.119 75.2998 470.319 75.2998C465.853 75.2998 461.887 74.2329 458.42 72.0996C455.02 69.8996 452.353 66.8666 450.42 63C448.553 59.1333 447.619 54.6333 447.619 49.5C447.619 44.3667 448.553 39.8996 450.42 36.0996C452.353 32.2332 454.986 29.2329 458.319 27.0996C461.719 24.8996 465.62 23.7998 470.02 23.7998ZM470.619 30.0996C465.619 30.0997 461.686 31.8672 458.819 35.4004C455.953 38.867 454.52 43.5669 454.52 49.5C454.52 55.4999 455.953 60.2665 458.819 63.7998C461.753 67.2664 465.686 68.9999 470.619 69C475.486 69 479.386 67.2665 482.319 63.7998C485.319 60.2665 486.819 55.5 486.819 49.5C486.886 45.6335 486.253 42.267 484.92 39.4004C483.587 36.4671 481.686 34.1996 479.22 32.5996C476.753 30.933 473.886 30.0996 470.619 30.0996Z" fill="black"/>
<path d="M720.889 71.0996L737.189 25H744.389L722.589 84.5996C721.522 87.5329 720.022 89.6667 718.089 91C716.222 92.3333 713.522 93 709.989 93H704.089V87.0996H709.489C711.689 87.0996 713.289 86.7333 714.289 86C715.356 85.3334 716.222 84.1335 716.889 82.4004L718.889 77H716.489L696.589 25H703.789L720.889 71.0996Z" fill="black"/>
<path d="M407.605 89H397.306L426.905 3H437.105L407.605 89Z" fill="black"/>
<path fill-rule="evenodd" clip-rule="evenodd" d="M233.873 32.2998C235.273 29.9665 237.34 27.9335 240.073 26.2002C242.873 24.4669 246.107 23.5996 249.773 23.5996C254.373 23.5996 258.373 24.7333 261.773 27C265.173 29.2667 267.773 32.5002 269.573 36.7002C271.44 40.8335 272.373 45.7338 272.373 51.4004C272.373 57.0669 271.44 62.0003 269.573 66.2002C267.773 70.3334 265.173 73.5332 261.773 75.7998C258.373 78.0665 254.373 79.2002 249.773 79.2002C246.107 79.2002 242.84 78.3998 239.974 76.7998C237.174 75.1332 235.007 72.8666 233.474 70L233.174 78H223.273V7H233.873V32.2998ZM248.174 32.7998C245.174 32.7998 242.607 33.5334 240.474 35C238.34 36.4667 236.707 38.6004 235.573 41.4004C234.44 44.1336 233.873 47.4672 233.873 51.4004C233.873 55.2001 234.44 58.5 235.573 61.2998C236.707 64.0998 238.34 66.2665 240.474 67.7998C242.607 69.2664 245.14 70 248.073 70C252.14 70 255.373 68.3663 257.773 65.0996C260.173 61.7664 261.373 57.2001 261.373 51.4004C261.373 45.6004 260.173 41.0665 257.773 37.7998C255.374 34.4667 252.174 32.7999 248.174 32.7998Z" fill="black"/>
<path fill-rule="evenodd" clip-rule="evenodd" d="M351.842 32.2998C353.242 29.9665 355.309 27.9335 358.042 26.2002C360.842 24.4669 364.076 23.5996 367.742 23.5996C372.342 23.5996 376.342 24.7333 379.742 27C383.142 29.2667 385.742 32.5002 387.542 36.7002C389.409 40.8335 390.342 45.7338 390.342 51.4004C390.342 57.0669 389.409 62.0003 387.542 66.2002C385.742 70.3334 383.142 73.5332 379.742 75.7998C376.342 78.0665 372.342 79.2002 367.742 79.2002C364.076 79.2002 360.809 78.3998 357.942 76.7998C355.142 75.1332 352.976 72.8666 351.442 70L351.143 78H341.242V7H351.842V32.2998ZM366.143 32.7998C363.143 32.7998 360.576 33.5334 358.442 35C356.309 36.4667 354.675 38.6004 353.542 41.4004C352.409 44.1336 351.842 47.4672 351.842 51.4004C351.842 55.2001 352.409 58.5 353.542 61.2998C354.675 64.0998 356.309 66.2665 358.442 67.7998C360.576 69.2664 363.109 70 366.042 70C370.109 70 373.342 68.3663 375.742 65.0996C378.142 61.7664 379.342 57.2001 379.342 51.4004C379.342 45.6004 378.142 41.0665 375.742 37.7998C373.342 34.4667 370.142 32.7999 366.143 32.7998Z" fill="black"/>
<path fill-rule="evenodd" clip-rule="evenodd" d="M528.613 23.7998C535.213 23.7998 540.246 25.6671 543.713 29.4004C547.18 33.1337 548.913 38.4671 548.913 45.4004V67.5C548.913 69.2999 549.18 70.5335 549.713 71.2002C550.313 71.8002 551.247 72.0996 552.514 72.0996H554.113V78C553.847 78.0667 553.446 78.0996 552.913 78.0996C552.446 78.1663 551.946 78.2002 551.413 78.2002C549.346 78.2002 547.613 77.8329 546.213 77.0996C544.88 76.3663 543.879 75.1665 543.213 73.5C542.772 72.2755 542.494 70.709 542.377 68.8008C541.692 70.3294 540.704 71.7624 539.413 73.0996C537.613 74.9662 535.347 76.4663 532.613 77.5996C529.88 78.6663 526.947 79.2002 523.813 79.2002C518.48 79.2002 514.214 77.9335 511.014 75.4004C507.814 72.8005 506.213 69.3002 506.213 64.9004C506.213 60.5004 507.613 57.0333 510.413 54.5C513.213 51.9667 517.313 50.2002 522.713 49.2002L542.313 45.5C542.313 40.2334 541.18 36.3671 538.913 33.9004C536.646 31.3671 533.213 30.0996 528.613 30.0996C524.547 30.0996 521.313 31.0667 518.913 33C516.513 34.9333 514.913 37.6669 514.113 41.2002L507.113 40.5996C508.113 35.4665 510.447 31.4003 514.113 28.4004C517.847 25.3337 522.68 23.7998 528.613 23.7998ZM524.113 54.7998C520.313 55.5331 517.513 56.6669 515.713 58.2002C513.98 59.7335 513.113 61.7667 513.113 64.2998C513.113 67.1665 514.113 69.4 516.113 71C518.113 72.5333 520.88 73.2998 524.413 73.2998C528.08 73.2998 531.246 72.5663 533.913 71.0996C536.58 69.633 538.647 67.6668 540.113 65.2002C541.58 62.6669 542.313 59.8335 542.313 56.7002V51.4004L524.113 54.7998Z" fill="black"/>
<path fill-rule="evenodd" clip-rule="evenodd" d="M633.717 23.7998C638.45 23.7998 642.551 24.9335 646.018 27.2002C649.484 29.4668 652.117 32.6667 653.917 36.7998C655.784 40.9331 656.717 45.7666 656.717 51.2998V53.4004H617.117C617.384 59.6669 619.018 64.5005 622.018 67.9004C625.018 71.2335 629.051 72.9004 634.117 72.9004C637.984 72.9004 641.151 71.9663 643.617 70.0996C646.084 68.233 647.783 65.7667 648.717 62.7002L655.817 63.2002C654.484 67.8668 651.917 71.7002 648.117 74.7002C644.317 77.7001 639.65 79.2002 634.117 79.2002C629.051 79.2002 624.75 78.0335 621.217 75.7002C617.684 73.3003 614.951 70.0334 613.018 65.9004C611.151 61.7004 610.217 56.9 610.217 51.5C610.217 46.1 611.151 41.3335 613.018 37.2002C614.884 33.0002 617.551 29.7337 621.018 27.4004C624.551 25.0005 628.784 23.7999 633.717 23.7998ZM633.717 30.0996C629.117 30.0997 625.35 31.5998 622.417 34.5996C619.484 37.5996 617.717 41.9 617.117 47.5H649.518C649.184 41.8333 647.617 37.5329 644.817 34.5996C642.017 31.5997 638.317 30.0996 633.717 30.0996Z" fill="black"/>
<path d="M309.236 23.5996C313.236 23.5996 316.537 24.4998 319.137 26.2998C321.803 28.0331 323.803 30.4333 325.137 33.5C326.537 36.4999 327.236 39.9332 327.236 43.7998V78H316.637V47C316.637 43.8667 316.303 41.2329 315.637 39.0996C314.97 36.9666 313.87 35.3335 312.337 34.2002C310.804 33.0669 308.803 32.5 306.337 32.5C302.604 32.5 299.57 33.7335 297.236 36.2002C294.903 38.6669 293.736 42.2669 293.736 47V78H283.137V24.7998H292.837L293.095 33.9658C293.685 32.4142 294.432 31.0589 295.337 29.9004C297.004 27.7671 299.037 26.2002 301.437 25.2002C303.836 24.1336 306.436 23.5997 309.236 23.5996Z" fill="black"/>
<path d="M570.319 68.2002C570.319 69.4666 570.653 70.433 571.319 71.0996C571.986 71.7662 572.986 72.0996 574.319 72.0996H578.52V78H573.42C570.42 78 568.053 77.2665 566.319 75.7998C564.586 74.2665 563.72 71.9 563.72 68.7002V7H570.319V68.2002Z" fill="black"/>
<path d="M595.222 68.2002C595.222 69.4666 595.555 70.433 596.222 71.0996C596.888 71.7662 597.888 72.0996 599.222 72.0996H603.422V78H598.322C595.322 78 592.955 77.2665 591.222 75.7998C589.489 74.2665 588.622 71.9 588.622 68.7002V7H595.222V68.2002Z" fill="black"/>
<path d="M674.498 35.6426C675.41 32.574 676.712 30.1929 678.404 28.5C680.671 26.1667 683.805 25 687.805 25H692.404V31.4004H687.604C684.938 31.4004 682.671 32.0002 680.805 33.2002C678.938 34.3335 677.505 35.9665 676.505 38.0996C675.572 40.2329 675.104 42.7669 675.104 45.7002V78H668.505V25H674.205L674.498 35.6426Z" fill="black"/>
</svg>
