<svg width="24" height="24" viewBox="0 0 24 24" fill="none" xmlns="http://www.w3.org/2000/svg">
<path fill-rule="evenodd" clip-rule="evenodd" d="M11.9875 6.26758C13.1666 6.26758 14.0914 6.26641 14.8118 6.32129C15.5287 6.37598 16.1365 6.49083 16.6418 6.77735C17.193 7.09013 17.4882 7.53266 17.6213 8.09375C17.7368 8.58129 17.7327 9.18423 17.7327 9.82617V14.4131C17.7327 15.0551 17.7368 15.6579 17.6213 16.1455C17.4883 16.7068 17.1932 17.15 16.6418 17.4629C16.1365 17.7494 15.5287 17.8633 14.8118 17.918C14.0914 17.9729 13.1666 17.9727 11.9875 17.9727C10.8082 17.9727 9.88272 17.9729 9.16234 17.918C8.44571 17.8632 7.83834 17.7494 7.33324 17.4629C6.78216 17.15 6.48575 16.7067 6.35277 16.1455C6.23734 15.6579 6.24242 15.055 6.24242 14.4131V9.82617C6.24242 9.1843 6.23728 8.58126 6.35277 8.09375C6.48578 7.53268 6.78223 7.09016 7.33324 6.77735C7.83838 6.49082 8.44563 6.37602 9.16234 6.32129C9.88272 6.26634 10.8082 6.26758 11.9875 6.26758ZM11.9875 7.65235C10.7858 7.65235 9.92301 7.65315 9.26781 7.70313C8.60991 7.75338 8.25124 7.84947 8.01683 7.98242C7.82877 8.08925 7.7533 8.19503 7.7014 8.41406C7.63213 8.70694 7.62719 9.11769 7.62718 9.82617V14.4131C7.62718 15.1221 7.63204 15.5332 7.7014 15.8262C7.75331 16.0452 7.82876 16.151 8.01683 16.2578C8.25124 16.3907 8.61002 16.4869 9.26781 16.5371C9.92302 16.5871 10.7858 16.5869 11.9875 16.5869C13.1889 16.5869 14.0511 16.587 14.7063 16.5371C15.3644 16.4869 15.7237 16.3907 15.9582 16.2578C16.1466 16.1509 16.2217 16.0453 16.2737 15.8262C16.343 15.5332 16.3469 15.1221 16.3469 14.4131V9.82617C16.3469 9.11765 16.343 8.70695 16.2737 8.41406C16.2217 8.19501 16.1465 8.08928 15.9582 7.98242C15.7237 7.84952 15.3644 7.75333 14.7063 7.70313C14.0511 7.65322 13.1889 7.65235 11.9875 7.65235Z" fill="black"/>
<path d="M1.98656 8.56543C2.57736 8.62993 3.09345 8.75104 3.53441 9.00977C4.08406 9.3325 4.37167 9.78517 4.50121 10.3506C4.6145 10.8457 4.61058 11.459 4.61058 12.1201C4.61059 12.7814 4.61461 13.3955 4.50121 13.8906C4.37161 14.4558 4.08392 14.9088 3.53441 15.2314C3.09352 15.49 2.57717 15.6113 1.98656 15.6758C1.6067 15.7168 1.26465 15.4423 1.22289 15.0625C1.18143 14.6824 1.45626 14.3407 1.83617 14.2988C2.34203 14.2436 2.63471 14.1518 2.83226 14.0361C3.01691 13.9277 3.0965 13.8169 3.15062 13.5811C3.22077 13.2746 3.22484 12.8462 3.22484 12.1201C3.22484 11.3944 3.22066 10.9666 3.15062 10.6602C3.0965 10.424 3.017 10.3135 2.83226 10.2051C2.6347 10.0893 2.34237 9.99764 1.83617 9.94239C1.45637 9.90054 1.18172 9.55861 1.22289 9.17871C1.2644 8.79861 1.60649 8.52431 1.98656 8.56543Z" fill="black"/>
<path d="M21.9836 8.56543C22.3639 8.52399 22.7057 8.79845 22.7473 9.17871C22.7885 9.55881 22.5141 9.90078 22.134 9.94239C21.6279 9.99769 21.3345 10.0891 21.1369 10.2051C20.953 10.3133 20.8736 10.4244 20.8196 10.6602C20.7496 10.9666 20.7444 11.3945 20.7444 12.1201C20.7444 12.8461 20.7494 13.2746 20.8196 13.5811C20.8736 13.8167 20.9529 13.9279 21.1369 14.0361C21.3345 14.1521 21.6278 14.2435 22.134 14.2988C22.5143 14.3405 22.7888 14.6822 22.7473 15.0625C22.7055 15.4425 22.3637 15.7172 21.9836 15.6758C21.3929 15.6112 20.8767 15.4902 20.4358 15.2314C19.8863 14.9088 19.5985 14.4559 19.469 13.8906C19.3556 13.3955 19.3596 12.7814 19.3596 12.1201C19.3596 11.4591 19.3557 10.8456 19.469 10.3506C19.5985 9.78532 19.8865 9.3325 20.4358 9.00977C20.8767 8.75103 21.3929 8.62997 21.9836 8.56543Z" fill="black"/>
</svg>
